<?xml version="1.0" encoding="utf-8"?>
<!-- Generator: Adobe Illustrator 22.0.0, SVG Export Plug-In . SVG Version: 6.00 Build 0)  -->
<svg version="1.1" id="图层_1" xmlns="http://www.w3.org/2000/svg" xmlns:xlink="http://www.w3.org/1999/xlink" x="0px"
     y="0px"
     viewBox="0 0 1024 1024" style="enable-background:new 0 0 1024 1024;" xml:space="preserve">
<style type="text/css">
	.st0{fill:#EC6C00;}
</style>
  <g>
	<path class="st0" d="M243.2,221.4c-11,0-20.1,4.3-28.1,11.6c-7.9,7.9-11,17.1-11,27.5c0,11.6,3.1,20.8,11,28.1
		c6.1,6.1,14,10.4,22.6,11l-1.8,8.5c-1.8,7.3-3.1,15.9-4.9,25c-4.3,28.1-4.3,54.9-1.2,80.6l1.2,7.9c1.8,7.9,3.1,14,4.9,20.8
		c5.5,19.5,12.8,31.1,21.4,33h4.3c4.3,0,8.5-1.8,13.4-6.1c20.1-16.5,41.5-29.3,64.1-38.4c48.8-21.4,106.2-32.3,173.3-33h4.9
		c66.5,0.6,124.5,11.6,173.3,33c22,9.2,42.7,21.4,62.9,37.2c0,0.6,1.2,1.2,1.2,1.2c4.9,4.3,9.2,6.1,12.8,6.1h4.3
		c8.5-1.8,15.9-13.4,22-33c0-0.6,0.6-1.2,0.6-1.8c1.8-6.1,2.4-12.2,3.7-18.9l1.8-7.9c3.1-25.6,2.4-52.5-1.8-80.6
		c-1.2-9.2-2.4-17.7-4.3-25l-1.8-8.5c7.9-0.6,15.3-4.9,22-11c7.3-7.3,11.6-16.5,11.6-28.1c0-10.4-4.3-19.5-11.6-27.5
		c-7.3-7.3-17.1-11.6-28.1-11.6c-11,0-20.1,4.3-28.1,11.6c-7.3,7.9-11,17.1-11,27.5c0,1.8,0,3.1,0,4.3
		c-28.1,7.3-55.5,19.5-81.8,36.6c-14.6,9.8-27.5,19.5-37.8,28.7c-2.4,2.4-6.1,3.1-9.2,3.1c-4.9,0-8.5-3.1-11-9.2
		c-1.8-6.1-4.3-12.2-6.1-17.7l-3.1-6.7c-17.1-38.5-36.6-66.5-57.4-83.6c1.2,0,1.8-0.6,1.8-1.2c7.3-7.3,11.6-17.1,11.6-27.5
		c0-11.6-4.3-20.1-11.6-28.1c-7.9-7.9-17.1-11.6-28.1-11.6c-10.4,0-19.5,3.7-26.9,11.6c-7.9,7.9-11.6,16.5-11.6,28.1
		c0,10.4,3.7,20.1,11.6,27.5c0.6,0.6,0.6,1.2,1.2,1.2c-21.4,17.1-40.3,45.2-56.8,83.6l-2.4,6.7c-2.4,5.5-5.5,11.6-7.3,17.7
		c-2.4,6.1-5.5,9.2-10.4,9.2c-3.1,0-6.7-0.6-9.2-3.1c-11-9.2-23.8-18.9-37.8-28.7c-26.9-17.1-54.3-29.3-82.4-36.6
		c0.6-1.2,0.6-2.4,0.6-4.3c0-10.4-3.7-19.5-12.2-27.5C263.3,225.7,254.2,221.4,243.2,221.4z"/>
    <path class="st0" d="M212,552.8c-0.6-2.4-3.1-3.1-6.1-3.1c-3.7,0-7.3,3.1-9.2,9.2c-4.3,8.5-4.3,20.8,0.6,37.8
		c5.5,19.5,14,34.8,27.5,45.8l4.3,2.4c1.2,2.4,0.6,5.5-3.1,7.9c-11.6,8.5-20.8,18.3-28.1,28.7c-14.6,20.1-22,42.7-21.4,67.7
		c0.6,24.4,7.3,43.3,21.4,56.8c6.7,7.3,13.4,12.2,20.1,14.7h227c3.7-1.2,9.2-3.1,15.3-7.3s12.2-9.2,18.3-16.5
		c9.2-9.2,15.9-18.9,22-31.1c7.3-12.8,11.6-27.5,13.4-42.1c3.1,14.7,7.3,29.3,14,42.1c6.1,12.2,13.4,22,22.6,31.1
		c6.1,7.3,12.2,12.2,17.7,16.5c6.1,4.3,11,6.1,15.9,7.3h226.4c6.7-2.4,14-7.3,20.8-14.7c14-13.4,21.4-32.3,21.4-56.8
		c0-25-6.7-47.6-21.4-67.7c-7.3-10.4-16.5-20.1-28.1-28.7c-3.7-2.4-4.9-5.5-2.4-7.9l3.1-2.4c13.4-11,22.6-26.2,27.5-45.8
		c4.9-17.1,5.5-29.3,1.8-37.8c-3.1-6.1-6.7-9.2-11-9.2c-2.4,0-4.3,0.6-5.5,3.1c-0.6,2.4-2.4,4.9-4.9,7.9
		c-14.6,13.4-36,21.4-63.5,23.8c-26.9,1.8-48.2-1.2-64.1-9.2c-13.4-7.3-27.5-12.8-43.9-15.9c-7.3-1.8-14-3.1-19.5-3.1
		c-31.1-1.8-59.2,4.3-81.8,20.1c-11.6,7.3-19.5,15.3-25,23.8c-4.9-8.5-13.4-16.5-23.8-23.8c-23.2-15.9-50.7-22-82.4-20.1
		c-5.5,0-11.6,1.2-19.5,3.1c-16.5,3.1-31.1,8.5-43.3,15.9c-17.1,7.9-37.8,11-64.1,9.2c-27.5-2.4-48.8-10.4-64.1-23.8
		C215.1,557.7,213.3,555.3,212,552.8z"/>
    <path class="st0" d="M433.6,524.1c9.8-9.8,14.6-21.4,14.6-34.8c0-13.4-4.9-25-14.6-34.2c-9.2-9.8-20.1-14.7-33.6-14.7
		c-13.4,0-25,4.9-34.8,14.7c-9.2,9.2-14,20.8-14,34.2c0,13.4,4.9,25,14,34.8c9.8,9.2,21.4,13.4,34.8,13.4
		C413.4,537.6,424.4,533.3,433.6,524.1z"/>
    <path class="st0" d="M581.3,489.4c0,13.4,4.9,25,14,34.8c9.8,9.2,20.8,13.4,34.8,13.4c13.4,0,24.4-4.3,33.6-13.4
		c10.4-9.8,14.7-21.4,14.7-34.8c0-13.4-4.3-25-14.7-34.2c-9.2-9.8-20.1-14.7-33.6-14.7c-14,0-25,4.9-34.8,14.7
		C586.2,464.3,581.3,475.9,581.3,489.4z"/>
</g>
</svg>
